<svg width="130" height="19" viewBox="0 0 130 19" fill="none" xmlns="http://www.w3.org/2000/svg">
<path d="M24.2637 17.1443V0.509766H27.3054L35.1237 12.2253V0.509766H38.1654V17.1443H35.1237L27.3054 5.45261V17.1443H24.2637Z" fill="white"/>
<path d="M45.8578 17.4295C44.6696 17.4295 43.6161 17.176 42.6972 16.6691C41.7784 16.1621 41.0575 15.4492 40.5347 14.5303C40.0119 13.6115 39.7505 12.55 39.7505 11.346C39.7505 10.1261 40.004 9.04092 40.511 8.09038C41.0338 7.13983 41.7467 6.40316 42.6497 5.88035C43.5686 5.34171 44.6458 5.07239 45.8816 5.07239C47.0381 5.07239 48.0599 5.32587 48.9471 5.83283C49.8342 6.33979 50.5234 7.03685 51.0145 7.92403C51.5215 8.79537 51.7749 9.76968 51.7749 10.847C51.7749 11.0212 51.767 11.2034 51.7512 11.3935C51.7512 11.5836 51.7433 11.7817 51.7274 11.9876H42.7685C42.8319 12.9065 43.1487 13.6273 43.7191 14.1501C44.3052 14.6729 45.0102 14.9343 45.834 14.9343C46.4519 14.9343 46.9668 14.7997 47.3787 14.5303C47.8064 14.2452 48.1233 13.8808 48.3292 13.4372H51.4185C51.1967 14.1818 50.8244 14.863 50.3016 15.4809C49.7946 16.0829 49.1609 16.5582 48.4005 16.9067C47.6559 17.2552 46.8083 17.4295 45.8578 17.4295ZM45.8816 7.54381C45.137 7.54381 44.4795 7.75769 43.9092 8.18543C43.3388 8.59733 42.9745 9.23103 42.816 10.0865H48.6857C48.6381 9.31025 48.353 8.69239 47.8302 8.23296C47.3074 7.77353 46.6578 7.54381 45.8816 7.54381Z" fill="white"/>
<path d="M51.2159 17.1443L55.4934 11.2509L51.2159 5.35755H54.4716L57.4658 9.53996L60.4362 5.35755H63.7156L59.4144 11.2509L63.7156 17.1443H60.4362L57.4658 12.9619L54.4716 17.1443H51.2159Z" fill="white"/>
<path d="M69.7171 17.1443C68.4814 17.1443 67.4912 16.8433 66.7466 16.2413C66.002 15.6393 65.6297 14.5699 65.6297 13.0332V7.90027H63.6098V5.35755H65.6297L65.9862 2.19699H68.6715V5.35755H71.8558V7.90027H68.6715V13.057C68.6715 13.6273 68.7903 14.0234 69.0279 14.2452C69.2814 14.4511 69.7092 14.5541 70.3112 14.5541H71.7845V17.1443H69.7171Z" fill="white"/>
<path d="M73.2792 17.1443V5.35755H75.9645L76.2259 6.94972C76.6061 6.37939 77.1052 5.92788 77.723 5.59519C78.3567 5.24666 79.0855 5.07239 79.9093 5.07239C81.7312 5.07239 83.0223 5.77738 83.7827 7.18736C84.2105 6.53782 84.7808 6.02294 85.4937 5.64272C86.2225 5.2625 87.0146 5.07239 87.8701 5.07239C89.4068 5.07239 90.5871 5.53182 91.4109 6.45068C92.2347 7.36954 92.6466 8.71615 92.6466 10.4905V17.1443H89.6049V10.7757C89.6049 9.76175 89.4068 8.98547 89.0108 8.44683C88.6305 7.90819 88.0364 7.63887 87.2285 7.63887C86.4047 7.63887 85.7393 7.93987 85.2323 8.54189C84.7412 9.1439 84.4957 9.98355 84.4957 11.0608V17.1443H81.4539V10.7757C81.4539 9.76175 81.2559 8.98547 80.8598 8.44683C80.4638 7.90819 79.8538 7.63887 79.03 7.63887C78.2221 7.63887 77.5646 7.93987 77.0576 8.54189C76.5665 9.1439 76.321 9.98355 76.321 11.0608V17.1443H73.2792Z" fill="white"/>
<path d="M100.002 17.4295C98.8614 17.4295 97.8316 17.1681 96.9127 16.6453C96.0097 16.1225 95.2889 15.4017 94.7502 14.4828C94.2274 13.5481 93.966 12.4708 93.966 11.2509C93.966 10.0311 94.2354 8.96171 94.774 8.04285C95.3126 7.10814 96.0335 6.37939 96.9365 5.85659C97.8554 5.33379 98.8851 5.07239 100.026 5.07239C101.151 5.07239 102.165 5.33379 103.068 5.85659C103.986 6.37939 104.707 7.10814 105.23 8.04285C105.769 8.96171 106.038 10.0311 106.038 11.2509C106.038 12.4708 105.769 13.5481 105.23 14.4828C104.707 15.4017 103.986 16.1225 103.068 16.6453C102.149 17.1681 101.127 17.4295 100.002 17.4295ZM100.002 14.7917C100.794 14.7917 101.483 14.4986 102.069 13.9125C102.656 13.3105 102.949 12.4233 102.949 11.2509C102.949 10.0786 102.656 9.19935 102.069 8.61318C101.483 8.01116 100.802 7.71016 100.026 7.71016C99.2178 7.71016 98.5207 8.01116 97.9346 8.61318C97.3643 9.19935 97.0791 10.0786 97.0791 11.2509C97.0791 12.4233 97.3643 13.3105 97.9346 13.9125C98.5207 14.4986 99.2099 14.7917 100.002 14.7917Z" fill="white"/>
<path d="M110.174 17.1443L105.849 5.35755H109.033L112.027 14.2689L115.021 5.35755H118.206L113.857 17.1443H110.174Z" fill="white"/>
<path d="M124.083 17.4295C122.895 17.4295 121.841 17.176 120.922 16.6691C120.004 16.1621 119.283 15.4492 118.76 14.5303C118.237 13.6115 117.976 12.55 117.976 11.346C117.976 10.1261 118.229 9.04092 118.736 8.09038C119.259 7.13983 119.972 6.40316 120.875 5.88035C121.794 5.34171 122.871 5.07239 124.107 5.07239C125.263 5.07239 126.285 5.32587 127.172 5.83283C128.059 6.33979 128.749 7.03685 129.24 7.92403C129.747 8.79537 130 9.76968 130 10.847C130 11.0212 129.992 11.2034 129.976 11.3935C129.976 11.5836 129.968 11.7817 129.953 11.9876H120.994C121.057 12.9065 121.374 13.6273 121.944 14.1501C122.53 14.6729 123.235 14.9343 124.059 14.9343C124.677 14.9343 125.192 14.7997 125.604 14.5303C126.032 14.2452 126.348 13.8808 126.554 13.4372H129.644C129.422 14.1818 129.05 14.863 128.527 15.4809C128.02 16.0829 127.386 16.5582 126.626 16.9067C125.881 17.2552 125.034 17.4295 124.083 17.4295ZM124.107 7.54381C123.362 7.54381 122.705 7.75769 122.134 8.18543C121.564 8.59733 121.2 9.23103 121.041 10.0865H126.911C126.863 9.31025 126.578 8.69239 126.055 8.23296C125.533 7.77353 124.883 7.54381 124.107 7.54381Z" fill="white"/>
<path d="M9.2647 0.186555V7.70643C9.2647 8.56472 8.56891 9.26051 7.71062 9.26051L0.190745 9.26051L0.190746 6.15235H3.95455L0 2.1978L2.1978 0L6.15654 3.95874L6.15654 0.186555L9.2647 0.186555Z" fill="#90D8F6"/>
<path d="M18.4449 9.36708H10.925C10.0667 9.36708 9.37093 10.0629 9.37093 10.9212V18.441L12.4791 18.441L12.4791 14.6769L16.4339 18.6317L18.6317 16.4339L14.673 12.4752H18.4449V9.36708Z" fill="#90D8F6"/>
</svg>
