<svg width="130" height="29" viewBox="0 0 130 29" fill="none" xmlns="http://www.w3.org/2000/svg">
<path fill-rule="evenodd" clip-rule="evenodd" d="M4.75513 7.23468C6.93825 4.2982 10.4342 2.39574 14.3744 2.39574C18.3379 2.39574 21.8517 4.32064 24.0321 7.28659C23.9391 7.38202 23.8546 7.48092 23.7783 7.57969C23.3788 8.0969 23.0785 8.76315 22.8375 9.4397C22.3528 10.8004 21.9829 12.5777 21.6407 14.2421L21.6099 14.3917C21.2684 16.053 20.9508 17.598 20.567 18.7449C20.3945 19.2603 20.2308 19.6243 20.0859 19.8577C19.9346 19.6227 19.7628 19.2539 19.5809 18.7313C19.1701 17.5514 18.8251 15.9466 18.4589 14.233L18.4469 14.1769L18.4469 14.1768C18.0951 12.5309 17.722 10.7846 17.2566 9.44781C17.0229 8.77633 16.736 8.11676 16.3608 7.60434C15.9926 7.10144 15.3797 6.53388 14.4834 6.53388C13.5926 6.53388 12.9769 7.09525 12.6034 7.59254C12.221 8.10163 11.9228 8.75846 11.6772 9.43032C11.1826 10.7832 10.7782 12.5529 10.4019 14.2195L10.363 14.3917C9.99041 16.0427 9.64202 17.5862 9.24661 18.7354C9.09562 19.1742 8.95317 19.5078 8.82421 19.7464C8.6982 19.509 8.55934 19.1776 8.41245 18.7422C8.03308 17.6177 7.70077 16.1175 7.34383 14.506L7.28134 14.224C6.91151 12.5564 6.51031 10.7835 6.00867 9.42633C5.75942 8.75199 5.45456 8.09186 5.06005 7.58037C4.97074 7.46458 4.8692 7.34707 4.75513 7.23468ZM3.43381 9.48942C3.5378 9.69473 3.64778 9.94921 3.76152 10.2569C4.19572 11.4316 4.56361 13.0345 4.94244 14.7427L5.01614 15.0756L5.01614 15.0756C5.36106 16.6342 5.71984 18.2555 6.14241 19.508C6.36717 20.1742 6.63862 20.8268 6.98772 21.334C7.31783 21.8135 7.91005 22.4329 8.82071 22.4329C9.72872 22.4329 10.3224 21.8166 10.6547 21.339C11.0068 20.833 11.2827 20.1813 11.512 19.5149C11.9516 18.2373 12.3258 16.578 12.684 14.99L12.684 14.9899L12.7388 14.7472C13.1248 13.038 13.4963 11.4319 13.9273 10.2529C14.127 9.70671 14.314 9.32616 14.4767 9.09011C14.631 9.32414 14.8072 9.69861 14.994 10.2354C15.4048 11.4153 15.7498 13.0202 16.116 14.7337L16.128 14.7898C16.4798 16.4358 16.853 18.1822 17.3183 19.5189C17.5521 20.1904 17.8389 20.85 18.2141 21.3624C18.5823 21.8653 19.1952 22.4329 20.0916 22.4329C20.9925 22.4329 21.6031 21.8602 21.967 21.3529C22.3363 20.8379 22.6143 20.1762 22.8388 19.5053C23.2699 18.2172 23.6133 16.5457 23.9399 14.9555L23.9873 14.7247C24.3393 13.0132 24.6772 11.4147 25.0943 10.2436C25.1851 9.98881 25.2738 9.77156 25.3591 9.58912C25.9985 11.0548 26.3531 12.6732 26.3531 14.3744C26.3531 20.9901 20.9901 26.3531 14.3744 26.3531C7.75878 26.3531 2.39574 20.9901 2.39574 14.3744C2.39574 12.6345 2.76669 10.9813 3.43381 9.48942ZM14.3744 0C6.43565 0 0 6.43565 0 14.3744C0 22.3132 6.43565 28.7488 14.3744 28.7488C22.3132 28.7488 28.7488 22.3132 28.7488 14.3744C28.7488 6.43565 22.3132 0 14.3744 0ZM14.6399 8.89537C14.6455 8.8921 14.6483 8.88987 14.6483 8.88957C14.6483 8.88935 14.6468 8.89017 14.6438 8.89239C14.6427 8.89319 14.6414 8.89418 14.6399 8.89537ZM14.3172 8.89122C14.3116 8.88778 14.3089 8.88546 14.3089 8.88516C14.3089 8.88486 14.3117 8.88658 14.3172 8.89122ZM19.9092 20.0853C19.9092 20.085 19.9118 20.0827 19.9172 20.0792C19.9119 20.0839 19.9092 20.0856 19.9092 20.0853ZM20.266 20.0816C20.266 20.0813 20.2633 20.079 20.2577 20.0755C20.2605 20.0778 20.2625 20.0794 20.2639 20.0804C20.2653 20.0814 20.266 20.0817 20.266 20.0816ZM8.5752 20.1066C8.57518 20.1062 8.5786 20.103 8.58552 20.0981C8.57868 20.1046 8.57522 20.107 8.5752 20.1066ZM9.07063 20.109C9.07065 20.1086 9.06725 20.1054 9.06036 20.1004C9.06294 20.1029 9.06504 20.1048 9.06665 20.1062C9.06928 20.1084 9.07061 20.1093 9.07063 20.109Z" fill="#FCBB01"/>
<path d="M36.6859 22.8845L33.2002 10.961H36.2532L38.3206 19.543L40.7245 10.961H44.1381L46.542 19.543L48.6335 10.961H51.6865L48.1767 22.8845H44.9795L42.4313 13.9659L39.8831 22.8845H36.6859Z" fill="white"/>
<path d="M56.1666 23.173C55.1409 23.173 54.2996 23.0127 53.6425 22.6922C52.9854 22.3556 52.4966 21.9149 52.1761 21.37C51.8556 20.8251 51.6953 20.2242 51.6953 19.5671C51.6953 18.4613 52.128 17.5638 52.9934 16.8747C53.8588 16.1855 55.157 15.841 56.8878 15.841H59.9167V15.5525C59.9167 14.7352 59.6844 14.1342 59.2196 13.7496C58.7548 13.3649 58.1779 13.1726 57.4888 13.1726C56.8638 13.1726 56.3189 13.3249 55.8541 13.6294C55.3893 13.9178 55.1009 14.3505 54.9887 14.9275H51.9838C52.0639 14.0621 52.3524 13.3088 52.8492 12.6678C53.362 12.0267 54.0191 11.5379 54.8204 11.2014C55.6217 10.8488 56.5192 10.6725 57.5128 10.6725C59.2116 10.6725 60.5498 11.0972 61.5274 11.9466C62.505 12.796 62.9938 13.998 62.9938 15.5525V22.8845H60.3735L60.085 20.9614C59.7324 21.6024 59.2356 22.1313 58.5946 22.548C57.9696 22.9646 57.1602 23.173 56.1666 23.173ZM56.8638 20.769C57.7452 20.769 58.4263 20.4806 58.9071 19.9036C59.4039 19.3267 59.7164 18.6135 59.8446 17.7641H57.2243C56.407 17.7641 55.822 17.9164 55.4695 18.2209C55.1169 18.5093 54.9406 18.8699 54.9406 19.3026C54.9406 19.7674 55.1169 20.128 55.4695 20.3844C55.822 20.6408 56.2868 20.769 56.8638 20.769Z" fill="white"/>
<path d="M67.8377 22.8845L63.4626 10.961H66.6838L69.7128 19.9757L72.7417 10.961H75.963L71.5638 22.8845H67.8377Z" fill="white"/>
<path d="M82.1488 23.173C80.9469 23.173 79.8811 22.9166 78.9516 22.4037C78.0221 21.8909 77.2929 21.1697 76.764 20.2402C76.2352 19.3107 75.9707 18.2369 75.9707 17.0189C75.9707 15.7849 76.2271 14.6871 76.74 13.7255C77.2688 12.7639 77.99 12.0187 78.9035 11.4899C79.833 10.945 80.9228 10.6725 82.1729 10.6725C83.3428 10.6725 84.3765 10.9289 85.274 11.4418C86.1714 11.9546 86.8686 12.6598 87.3654 13.5572C87.8782 14.4387 88.1346 15.4243 88.1346 16.5141C88.1346 16.6904 88.1266 16.8747 88.1106 17.067C88.1106 17.2593 88.1026 17.4596 88.0866 17.668H79.0237C79.0878 18.5975 79.4084 19.3267 79.9853 19.8556C80.5783 20.3844 81.2914 20.6489 82.1248 20.6489C82.7498 20.6489 83.2707 20.5126 83.6874 20.2402C84.1201 19.9517 84.4406 19.5831 84.6489 19.1344H87.7741C87.5497 19.8876 87.1731 20.5767 86.6442 21.2018C86.1314 21.8108 85.4903 22.2915 84.7211 22.6441C83.9678 22.9967 83.1104 23.173 82.1488 23.173ZM82.1729 13.1726C81.4196 13.1726 80.7546 13.389 80.1776 13.8217C79.6007 14.2384 79.2321 14.8794 79.0718 15.7448H85.0095C84.9614 14.9595 84.673 14.3345 84.1441 13.8698C83.6152 13.405 82.9582 13.1726 82.1729 13.1726Z" fill="white"/>
<path d="M89.7611 22.8845V5.57617H92.8381V22.8845H89.7611Z" fill="white"/>
<path d="M100.814 23.173C99.6121 23.173 98.5464 22.9166 97.6169 22.4037C96.6873 21.8909 95.9581 21.1697 95.4293 20.2402C94.9004 19.3107 94.636 18.2369 94.636 17.0189C94.636 15.7849 94.8924 14.6871 95.4052 13.7255C95.9341 12.7639 96.6553 12.0187 97.5688 11.4899C98.4983 10.945 99.5881 10.6725 100.838 10.6725C102.008 10.6725 103.042 10.9289 103.939 11.4418C104.837 11.9546 105.534 12.6598 106.031 13.5572C106.543 14.4387 106.8 15.4243 106.8 16.5141C106.8 16.6904 106.792 16.8747 106.776 17.067C106.776 17.2593 106.768 17.4596 106.752 17.668H97.689C97.7531 18.5975 98.0736 19.3267 98.6505 19.8556C99.2435 20.3844 99.9567 20.6489 100.79 20.6489C101.415 20.6489 101.936 20.5126 102.353 20.2402C102.785 19.9517 103.106 19.5831 103.314 19.1344H106.439C106.215 19.8876 105.838 20.5767 105.309 21.2018C104.797 21.8108 104.156 22.2915 103.386 22.6441C102.633 22.9967 101.776 23.173 100.814 23.173ZM100.838 13.1726C100.085 13.1726 99.4198 13.389 98.8429 13.8217C98.2659 14.2384 97.8973 14.8794 97.737 15.7448H103.675C103.627 14.9595 103.338 14.3345 102.809 13.8698C102.28 13.405 101.623 13.1726 100.838 13.1726Z" fill="white"/>
<path d="M113.354 23.173C112.297 23.173 111.367 23.0047 110.566 22.6682C109.764 22.3156 109.123 21.8348 108.643 21.2258C108.162 20.6168 107.873 19.9116 107.777 19.1103H110.878C110.974 19.5751 111.231 19.9757 111.648 20.3123C112.08 20.6328 112.633 20.7931 113.306 20.7931C113.979 20.7931 114.468 20.6569 114.773 20.3844C115.093 20.112 115.253 19.7995 115.253 19.4469C115.253 18.934 115.029 18.5895 114.58 18.4132C114.132 18.2209 113.507 18.0366 112.705 17.8603C112.192 17.7481 111.672 17.6119 111.143 17.4516C110.614 17.2914 110.125 17.091 109.676 16.8506C109.244 16.5942 108.891 16.2737 108.619 15.8891C108.346 15.4884 108.21 14.9996 108.21 14.4227C108.21 13.3649 108.627 12.4755 109.46 11.7543C110.309 11.0331 111.495 10.6725 113.018 10.6725C114.428 10.6725 115.55 11.0011 116.383 11.6581C117.233 12.3152 117.738 13.2207 117.898 14.3746H114.989C114.813 13.4931 114.148 13.0524 112.994 13.0524C112.417 13.0524 111.968 13.1646 111.648 13.389C111.343 13.6133 111.191 13.8938 111.191 14.2303C111.191 14.5829 111.423 14.8634 111.888 15.0717C112.353 15.2801 112.97 15.4724 113.739 15.6487C114.572 15.841 115.334 16.0573 116.023 16.2977C116.728 16.5221 117.289 16.8667 117.705 17.3314C118.122 17.7802 118.331 18.4292 118.331 19.2786C118.347 20.0158 118.154 20.6809 117.754 21.2739C117.353 21.8668 116.776 22.3316 116.023 22.6682C115.27 23.0047 114.38 23.173 113.354 23.173Z" fill="white"/>
<path d="M125.023 23.173C123.965 23.173 123.036 23.0047 122.234 22.6682C121.433 22.3156 120.792 21.8348 120.311 21.2258C119.83 20.6168 119.542 19.9116 119.446 19.1103H122.547C122.643 19.5751 122.899 19.9757 123.316 20.3123C123.749 20.6328 124.302 20.7931 124.975 20.7931C125.648 20.7931 126.137 20.6569 126.441 20.3844C126.762 20.112 126.922 19.7995 126.922 19.4469C126.922 18.934 126.698 18.5895 126.249 18.4132C125.8 18.2209 125.175 18.0366 124.374 17.8603C123.861 17.7481 123.34 17.6119 122.811 17.4516C122.282 17.2914 121.794 17.091 121.345 16.8506C120.912 16.5942 120.56 16.2737 120.287 15.8891C120.015 15.4884 119.878 14.9996 119.878 14.4227C119.878 13.3649 120.295 12.4755 121.128 11.7543C121.978 11.0331 123.164 10.6725 124.686 10.6725C126.097 10.6725 127.218 11.0011 128.052 11.6581C128.901 12.3152 129.406 13.2207 129.566 14.3746H126.658C126.481 13.4931 125.816 13.0524 124.662 13.0524C124.085 13.0524 123.637 13.1646 123.316 13.389C123.012 13.6133 122.859 13.8938 122.859 14.2303C122.859 14.5829 123.092 14.8634 123.556 15.0717C124.021 15.2801 124.638 15.4724 125.407 15.6487C126.241 15.841 127.002 16.0573 127.691 16.2977C128.396 16.5221 128.957 16.8667 129.374 17.3314C129.791 17.7802 129.999 18.4292 129.999 19.2786C130.015 20.0158 129.823 20.6809 129.422 21.2739C129.021 21.8668 128.444 22.3316 127.691 22.6682C126.938 23.0047 126.049 23.173 125.023 23.173Z" fill="white"/>
</svg>
