<svg width="130" height="41" viewBox="0 0 130 41" fill="none" xmlns="http://www.w3.org/2000/svg">
<circle cx="20.0808" cy="20.0808" r="20.0808" fill="#F36C33"/>
<path fill-rule="evenodd" clip-rule="evenodd" d="M26.6306 9.63212C25.0038 8.82107 23.0988 8.78294 21.4408 9.52822L11.4615 14.014C10.7939 14.3141 10.3645 14.9779 10.3645 15.7099V16.8929C10.3645 17.5979 10.7633 18.2423 11.3942 18.5569L19.4611 22.5785C19.9835 22.839 20.5979 22.839 21.1203 22.5785L29.2578 18.5217C30.687 17.8092 32.3666 18.8486 32.3666 20.4455V21.961C32.3666 22.7761 31.9055 23.5211 31.176 23.8848L21.2498 28.8334C20.6458 29.1345 19.9356 29.1345 19.3316 28.8334L11.5987 24.9782C11.0313 24.6954 10.3645 25.108 10.3645 25.742C10.3645 26.0656 10.5475 26.3614 10.8371 26.5058L19.4711 30.8102C19.9899 31.0688 20.5997 31.0707 21.1201 30.8152L27.8959 27.4885C28.4287 27.2269 29.0728 27.4468 29.3344 27.9796C29.596 28.5125 29.3761 29.1565 28.8433 29.4181L21.2417 33.1502C20.6401 33.4456 19.9351 33.4435 19.3353 33.1444L9.40538 28.194C8.67588 27.8303 8.21484 27.0853 8.21484 26.2702V24.3629C8.21484 22.766 9.89442 21.7266 11.3236 22.4391L19.4611 26.496C19.9835 26.7564 20.5979 26.7564 21.1203 26.496L29.8413 22.1482C30.0715 22.0335 30.2169 21.7985 30.2169 21.5413C30.2169 21.0375 29.6871 20.7096 29.2362 20.9344L21.2498 24.9159C20.6458 25.217 19.9356 25.217 19.3316 24.9159L9.40538 19.9673C8.67588 19.6036 8.21484 18.8586 8.21484 18.0435V14.5071C8.21484 13.6609 8.71132 12.8934 9.48315 12.5464L20.5595 7.56757C22.8055 6.55799 25.386 6.60965 27.5897 7.70831C31.61 9.71255 31.5261 15.4773 27.4494 17.3638L21.2154 20.2486C20.6176 20.5252 19.926 20.5125 19.3388 20.2141L13.4438 17.2184C12.9146 16.9495 12.7036 16.3025 12.9725 15.7733C13.2414 15.2441 13.8884 15.0331 14.4176 15.302L19.5083 17.8889C20.0162 18.147 20.6144 18.158 21.1315 17.9188L26.5466 15.4129C28.9874 14.2835 29.0376 10.8321 26.6306 9.63212Z" fill="white"/>
<path d="M52.712 14.3226V18.6037H58.4609V21.3191H52.712V25.8449H59.1948V28.6337H49.2871V11.5338H59.1948V14.3226H52.712Z" fill="white"/>
<path d="M64.7536 17.0625C65.1939 16.4101 65.7973 15.8801 66.5639 15.4724C67.3467 15.0647 68.2355 14.8608 69.2304 14.8608C70.3883 14.8608 71.4321 15.1462 72.3617 15.717C73.3076 16.2878 74.0497 17.1033 74.5879 18.1634C75.1424 19.2071 75.4196 20.4222 75.4196 21.8084C75.4196 23.1947 75.1424 24.426 74.5879 25.5024C74.0497 26.5625 73.3076 27.3861 72.3617 27.9732C71.4321 28.5603 70.3883 28.8539 69.2304 28.8539C68.2192 28.8539 67.3304 28.6582 66.5639 28.2668C65.8136 27.859 65.2102 27.3372 64.7536 26.7011V28.6337H61.3287V10.5308H64.7536V17.0625ZM71.9214 21.8084C71.9214 20.993 71.7501 20.2917 71.4076 19.7046C71.0814 19.1011 70.6411 18.6445 70.0866 18.3346C69.5484 18.0247 68.9613 17.8698 68.3252 17.8698C67.7055 17.8698 67.1184 18.0329 66.5639 18.3591C66.0257 18.6689 65.5853 19.1256 65.2428 19.729C64.9166 20.3325 64.7536 21.0419 64.7536 21.8573C64.7536 22.6728 64.9166 23.3822 65.2428 23.9857C65.5853 24.5891 66.0257 25.0539 66.5639 25.3801C67.1184 25.69 67.7055 25.8449 68.3252 25.8449C68.9613 25.8449 69.5484 25.6818 70.0866 25.3556C70.6411 25.0294 71.0814 24.5646 71.4076 23.9612C71.7501 23.3578 71.9214 22.6402 71.9214 21.8084Z" fill="white"/>
<path d="M82.9479 28.8539C81.6432 28.8539 80.4689 28.5685 79.4251 27.9977C78.3814 27.4106 77.5578 26.587 76.9543 25.5269C76.3672 24.4668 76.0736 23.2436 76.0736 21.8573C76.0736 20.4711 76.3754 19.2479 76.9788 18.1878C77.5985 17.1277 78.4384 16.3123 79.4985 15.7415C80.5586 15.1544 81.741 14.8608 83.0457 14.8608C84.3504 14.8608 85.5329 15.1544 86.5929 15.7415C87.653 16.3123 88.4848 17.1277 89.0882 18.1878C89.708 19.2479 90.0178 20.4711 90.0178 21.8573C90.0178 23.2436 89.6998 24.4668 89.0637 25.5269C88.444 26.587 87.5959 27.4106 86.5195 27.9977C85.4595 28.5685 84.2689 28.8539 82.9479 28.8539ZM82.9479 25.8694C83.5676 25.8694 84.1466 25.7226 84.6848 25.429C85.2393 25.1191 85.6796 24.6625 86.0058 24.0591C86.332 23.4556 86.4951 22.7217 86.4951 21.8573C86.4951 20.5689 86.1526 19.5822 85.4676 18.8973C84.7989 18.196 83.9753 17.8453 82.9968 17.8453C82.0183 17.8453 81.1947 18.196 80.526 18.8973C79.8736 19.5822 79.5475 20.5689 79.5475 21.8573C79.5475 23.1458 79.8655 24.1406 80.5015 24.8419C81.1539 25.5269 81.9693 25.8694 82.9479 25.8694Z" fill="white"/>
<path d="M97.5696 28.8539C96.2649 28.8539 95.0906 28.5685 94.0468 27.9977C93.0031 27.4106 92.1795 26.587 91.576 25.5269C90.9889 24.4668 90.6953 23.2436 90.6953 21.8573C90.6953 20.4711 90.9971 19.2479 91.6005 18.1878C92.2202 17.1277 93.0601 16.3123 94.1202 15.7415C95.1803 15.1544 96.3627 14.8608 97.6674 14.8608C98.9721 14.8608 100.155 15.1544 101.215 15.7415C102.275 16.3123 103.106 17.1277 103.71 18.1878C104.33 19.2479 104.64 20.4711 104.64 21.8573C104.64 23.2436 104.321 24.4668 103.685 25.5269C103.066 26.587 102.218 27.4106 101.141 27.9977C100.081 28.5685 98.8906 28.8539 97.5696 28.8539ZM97.5696 25.8694C98.1893 25.8694 98.7683 25.7226 99.3065 25.429C99.861 25.1191 100.301 24.6625 100.628 24.0591C100.954 23.4556 101.117 22.7217 101.117 21.8573C101.117 20.5689 100.774 19.5822 100.089 18.8973C99.4206 18.196 98.597 17.8453 97.6185 17.8453C96.64 17.8453 95.8164 18.196 95.1477 18.8973C94.4953 19.5822 94.1692 20.5689 94.1692 21.8573C94.1692 23.1458 94.4872 24.1406 95.1232 24.8419C95.7756 25.5269 96.591 25.8694 97.5696 25.8694Z" fill="white"/>
<path d="M114.197 28.6337L109.598 22.8603V28.6337H106.173V10.5308H109.598V20.8299L114.148 15.081H118.601L112.632 21.8818L118.65 28.6337H114.197Z" fill="white"/>
<path d="M124.667 28.8539C123.558 28.8539 122.563 28.6582 121.683 28.2668C120.802 27.859 120.101 27.3127 119.579 26.6277C119.073 25.9427 118.796 25.1844 118.747 24.3526H122.196C122.262 24.8745 122.514 25.3067 122.955 25.6492C123.411 25.9917 123.974 26.1629 124.643 26.1629C125.295 26.1629 125.801 26.0324 126.16 25.7715C126.535 25.5106 126.722 25.1762 126.722 24.7685C126.722 24.3282 126.494 24.002 126.037 23.79C125.597 23.5616 124.887 23.317 123.909 23.0561C122.898 22.8114 122.066 22.5586 121.414 22.2977C120.778 22.0367 120.223 21.6372 119.75 21.099C119.293 20.5608 119.065 19.835 119.065 18.9217C119.065 18.1715 119.277 17.4865 119.701 16.8668C120.142 16.2471 120.761 15.7578 121.56 15.399C122.376 15.0402 123.33 14.8608 124.423 14.8608C126.037 14.8608 127.326 15.2685 128.288 16.084C129.25 16.8831 129.78 17.9677 129.878 19.3376H126.6C126.551 18.7994 126.323 18.3754 125.915 18.0655C125.523 17.7393 124.993 17.5762 124.325 17.5762C123.705 17.5762 123.224 17.6904 122.881 17.9187C122.555 18.1471 122.392 18.4651 122.392 18.8728C122.392 19.3295 122.62 19.6801 123.077 19.9247C123.534 20.1531 124.243 20.3895 125.205 20.6342C126.184 20.8788 126.991 21.1316 127.627 21.3925C128.263 21.6535 128.81 22.0612 129.266 22.6157C129.739 23.1539 129.984 23.8715 130 24.7685C130 25.5513 129.78 26.2526 129.34 26.8724C128.916 27.4921 128.296 27.9814 127.481 28.3402C126.681 28.6827 125.744 28.8539 124.667 28.8539Z" fill="white"/>
</svg>
