<svg width="130" height="22" viewBox="0 0 130 22" fill="none" xmlns="http://www.w3.org/2000/svg">
<path fill-rule="evenodd" clip-rule="evenodd" d="M13.1616 0.52832C11.0847 0.52832 9.40113 2.21193 9.40113 4.28877C9.40113 6.36561 11.0847 8.04923 13.1616 8.04923C15.2384 8.04923 16.922 6.36561 16.922 4.28877C16.922 2.21193 15.2384 0.52832 13.1616 0.52832ZM5.80906 7.84404C9.72348 7.84404 12.8967 11.0173 12.8967 14.9317V20.7408H9.37132V14.9317C9.37132 14.5148 9.29971 14.1147 9.16813 13.7429L3.98977 18.9213L1.49692 16.4284L6.49072 11.4346C6.27009 11.3919 6.04219 11.3695 5.80906 11.3695H0V7.84404H5.80906ZM20.6018 7.84404C16.6874 7.84404 13.5141 11.0173 13.5141 14.9317V20.7408H17.0396V14.9317C17.0396 14.6052 17.0835 14.2889 17.1658 13.9884L22.5827 19.4054L25.0756 16.9125L19.6587 11.4956C19.9591 11.4134 20.2753 11.3695 20.6018 11.3695H26.4109V7.84404H20.6018Z" fill="#0050FF"/>
<path d="M32.0518 20.9441V0.680386H37.7907L43.9437 18.045H44.3875V0.680386H47.6711V20.9441H42.0505L35.7495 3.54985H35.3354V20.9441H32.0518Z" fill="white"/>
<path d="M60.8258 18.2817L61.6541 18.193L61.7133 20.5891C59.4651 21.0427 57.4732 21.2695 55.7377 21.2695C53.5487 21.2695 51.971 20.668 51.0046 19.465C50.058 18.262 49.5847 16.3391 49.5847 13.6965C49.5847 8.4506 51.7244 5.82766 56.004 5.82766C60.1455 5.82766 62.2162 8.08576 62.2162 12.602L62.0091 14.9094H52.8387C52.8584 16.1321 53.1247 17.0294 53.6374 17.6013C54.1502 18.1732 55.1066 18.4592 56.5069 18.4592C57.9071 18.4592 59.3467 18.4 60.8258 18.2817ZM59.0509 12.4245C59.0509 10.9651 58.8143 9.94943 58.341 9.37751C57.8874 8.78587 57.1084 8.49005 56.004 8.49005C54.8996 8.49005 54.091 8.79573 53.5782 9.40709C53.0852 10.0185 52.8288 11.0242 52.8091 12.4245H59.0509Z" fill="white"/>
<path d="M71.7952 8.9042H67.7129V15.4122C67.7129 16.6152 67.8017 17.414 67.9792 17.8084C68.1566 18.2028 68.6102 18.4 69.3399 18.4L71.7657 18.3113L71.9136 20.8849C70.5922 21.1413 69.5864 21.2695 68.8962 21.2695C67.2199 21.2695 66.0662 20.8849 65.4351 20.1158C64.8237 19.3467 64.5181 17.8971 64.5181 15.7672V8.9042H62.6248V6.15307H64.5181V1.86367H67.7129V6.15307H71.7952V8.9042Z" fill="white"/>
<path d="M71.807 6.15307H74.9723L77.3093 18.193H77.9009L80.7112 6.44889H84.0244L86.8347 18.193H87.4263L89.7337 6.15307H92.9286L89.7929 20.9441H84.6752L82.3678 10.7974L80.0604 20.9441H74.9427L71.807 6.15307Z" fill="white"/>
<path d="M94.9869 7.7505C96.0124 6.46861 97.7084 5.82766 100.075 5.82766C102.442 5.82766 104.128 6.46861 105.134 7.7505C106.159 9.03238 106.672 10.9552 106.672 13.519C106.672 16.0828 106.179 18.0155 105.193 19.3171C104.207 20.6187 102.501 21.2695 100.075 21.2695C97.6493 21.2695 95.9434 20.6187 94.9573 19.3171C93.9712 18.0155 93.4782 16.0828 93.4782 13.519C93.4782 10.9552 93.9811 9.03238 94.9869 7.7505ZM97.4126 17.3647C97.8662 18.1535 98.7537 18.5479 100.075 18.5479C101.396 18.5479 102.284 18.1535 102.737 17.3647C103.191 16.5758 103.418 15.2841 103.418 13.4894C103.418 11.6948 103.171 10.4227 102.678 9.67333C102.205 8.92392 101.337 8.54921 100.075 8.54921C98.8128 8.54921 97.9352 8.92392 97.4422 9.67333C96.9689 10.4227 96.7322 11.6948 96.7322 13.4894C96.7322 15.2841 96.959 16.5758 97.4126 17.3647Z" fill="white"/>
<path d="M108.396 20.9441V6.15307H111.59V7.92799C113.267 6.84331 114.943 6.1432 116.619 5.82766V9.05211C114.923 9.38737 113.474 9.82124 112.271 10.3537L111.62 10.62V20.9441H108.396Z" fill="white"/>
<path d="M120.83 20.9441H117.605V0H120.83V12.0991L122.664 11.9216L126.155 6.15307H129.764L125.504 13.0753L130 20.9441H126.362L122.753 14.7023L120.83 14.9094V20.9441Z" fill="white"/>
</svg>
