<svg width="130" height="36" viewBox="0 0 130 36" fill="none" xmlns="http://www.w3.org/2000/svg">
<path d="M18.9774 14.1768H28.3522L18.9774 0.000193596H9.60254L18.9774 14.1768Z" fill="#8E56EA"/>
<path d="M9.37615 14.1768H0.00132751L9.37615 0.000193596H18.751L9.37615 14.1768Z" fill="#A574ED"/>
<path d="M18.9785 28.3535L18.9785 14.177L28.3533 14.177L28.3533 28.3535L18.9785 28.3535Z" fill="#C19AF4"/>
<path d="M1.7113e-07 28.3535L0 14.177L9.37482 14.177L9.37482 28.3535L1.7113e-07 28.3535Z" fill="#C19AF4"/>
<path d="M52.3219 9.08008V28.3716H48.4525V20.163H40.1887V28.3716H36.3193V9.08008H40.1887V17.0123H48.4525V9.08008H52.3219Z" fill="white"/>
<path d="M61.8239 28.6203C60.3498 28.6203 59.0232 28.2979 57.8439 27.653C56.6647 26.9897 55.7342 26.0592 55.0525 24.8615C54.3892 23.6639 54.0575 22.282 54.0575 20.7158C54.0575 19.1496 54.3984 17.7677 55.0801 16.5701C55.7803 15.3724 56.7292 14.4511 57.9269 13.8062C59.1245 13.1429 60.4604 12.8112 61.9344 12.8112C63.4085 12.8112 64.7443 13.1429 65.942 13.8062C67.1396 14.4511 68.0793 15.3724 68.7611 16.5701C69.4612 17.7677 69.8113 19.1496 69.8113 20.7158C69.8113 22.282 69.452 23.6639 68.7334 24.8615C68.0333 26.0592 67.0751 26.9897 65.859 27.653C64.6614 28.2979 63.3163 28.6203 61.8239 28.6203ZM61.8239 25.2485C62.524 25.2485 63.1781 25.0826 63.7862 24.751C64.4126 24.4009 64.9101 23.885 65.2786 23.2032C65.6472 22.5215 65.8314 21.6923 65.8314 20.7158C65.8314 19.2602 65.4445 18.1454 64.6706 17.3716C63.9152 16.5793 62.9847 16.1831 61.8791 16.1831C60.7736 16.1831 59.8431 16.5793 59.0877 17.3716C58.3506 18.1454 57.9821 19.2602 57.9821 20.7158C57.9821 22.1714 58.3414 23.2954 59.06 24.0877C59.797 24.8615 60.7183 25.2485 61.8239 25.2485Z" fill="white"/>
<path d="M90.5592 12.8389C92.4387 12.8389 93.9495 13.4193 95.0919 14.5801C96.2527 15.7225 96.8331 17.3255 96.8331 19.3892V28.3716H92.9638V19.9143C92.9638 18.7166 92.6598 17.8046 92.0517 17.1781C91.4437 16.5332 90.6145 16.2108 89.5643 16.2108C88.514 16.2108 87.6757 16.5332 87.0492 17.1781C86.4411 17.8046 86.1371 18.7166 86.1371 19.9143V28.3716H82.2678V19.9143C82.2678 18.7166 81.9637 17.8046 81.3557 17.1781C80.7477 16.5332 79.9185 16.2108 78.8683 16.2108C77.7996 16.2108 76.952 16.5332 76.3255 17.1781C75.7175 17.8046 75.4135 18.7166 75.4135 19.9143V28.3716H71.5441V13.06H75.4135V14.9118C75.911 14.2669 76.5466 13.7602 77.3205 13.3917C78.1128 13.0231 78.9788 12.8389 79.9185 12.8389C81.1162 12.8389 82.1848 13.0968 83.1246 13.6128C84.0643 14.1102 84.7921 14.8288 85.308 15.7685C85.8055 14.8841 86.5241 14.1747 87.4638 13.6404C88.4219 13.1061 89.4537 12.8389 90.5592 12.8389Z" fill="white"/>
<path d="M113.633 20.3841C113.633 20.9369 113.596 21.4344 113.523 21.8766H102.329C102.421 22.9821 102.808 23.8481 103.49 24.4746C104.172 25.1011 105.01 25.4143 106.005 25.4143C107.442 25.4143 108.465 24.7971 109.073 23.5625H113.246C112.804 25.0366 111.956 26.2527 110.703 27.2108C109.451 28.1505 107.912 28.6203 106.088 28.6203C104.614 28.6203 103.287 28.2979 102.108 27.653C100.947 26.9897 100.035 26.0592 99.3718 24.8615C98.7269 23.6639 98.4044 22.282 98.4044 20.7158C98.4044 19.1312 98.7269 17.7401 99.3718 16.5424C100.017 15.3448 100.92 14.4235 102.08 13.7786C103.241 13.1337 104.577 12.8112 106.088 12.8112C107.543 12.8112 108.842 13.1245 109.985 13.7509C111.146 14.3774 112.039 15.2711 112.666 16.4319C113.311 17.5742 113.633 18.8917 113.633 20.3841ZM109.626 19.2786C109.607 18.2836 109.248 17.4913 108.548 16.9017C107.848 16.2937 106.991 15.9897 105.977 15.9897C105.019 15.9897 104.208 16.2845 103.545 16.8741C102.9 17.4453 102.504 18.2468 102.357 19.2786H109.626Z" fill="white"/>
<path d="M130 13.06L120.52 35.6128H116.402L119.719 27.9847L113.583 13.06H117.922L121.875 23.756L125.882 13.06H130Z" fill="white"/>
</svg>
