<svg width="130" height="36" viewBox="0 0 130 36" fill="none" xmlns="http://www.w3.org/2000/svg">
<path d="M16.1428 35.6826H4.53175L16.1428 18.1244H27.7539L16.1428 35.6826Z" fill="#FF8E42"/>
<path d="M11.8943 0H23.7886L11.8943 18.1246H0L11.8943 0Z" fill="#FF6600"/>
<path d="M51.4413 15.2747C51.4413 16.3515 51.1817 17.3609 50.6625 18.3031C50.1626 19.2453 49.3646 20.0048 48.2686 20.5816C47.1919 21.1584 45.8267 21.4469 44.1731 21.4469H40.7986V29.1765H36.7607V9.04485H44.1731C45.7306 9.04485 47.0573 9.31405 48.1533 9.85243C49.2493 10.3908 50.0665 11.1311 50.6048 12.0732C51.1624 13.0154 51.4413 14.0826 51.4413 15.2747ZM44.0001 18.1877C45.1153 18.1877 45.9421 17.9378 46.4805 17.4378C47.0188 16.9187 47.288 16.1976 47.288 15.2747C47.288 13.3135 46.192 12.3328 44.0001 12.3328H40.7986V18.1877H44.0001Z" fill="white"/>
<path d="M57.1923 15.6785C57.7114 14.8325 58.3844 14.1691 59.2112 13.6884C60.0572 13.2077 61.0186 12.9673 62.0954 12.9673V17.2071H61.0282C59.7592 17.2071 58.7978 17.5051 58.1441 18.1012C57.5095 18.6973 57.1923 19.7356 57.1923 21.2161V29.1765H53.1544V13.1981H57.1923V15.6785Z" fill="white"/>
<path d="M70.7565 29.4361C69.2183 29.4361 67.8339 29.0996 66.6033 28.4266C65.3727 27.7344 64.4017 26.7634 63.6903 25.5136C62.9981 24.2637 62.652 22.8217 62.652 21.1873C62.652 19.5529 63.0077 18.1108 63.7191 16.861C64.4498 15.6112 65.44 14.6498 66.6898 13.9768C67.9396 13.2846 69.3337 12.9385 70.8719 12.9385C72.4101 12.9385 73.8041 13.2846 75.054 13.9768C76.3038 14.6498 77.2844 15.6112 77.9958 16.861C78.7265 18.1108 79.0918 19.5529 79.0918 21.1873C79.0918 22.8217 78.7169 24.2637 77.967 25.5136C77.2363 26.7634 76.2365 27.7344 74.9674 28.4266C73.7176 29.0996 72.314 29.4361 70.7565 29.4361ZM70.7565 25.9173C71.4872 25.9173 72.1698 25.7443 72.8043 25.3982C73.458 25.0329 73.9772 24.4945 74.3618 23.783C74.7463 23.0716 74.9386 22.2064 74.9386 21.1873C74.9386 19.6683 74.5348 18.505 73.7272 17.6974C72.9389 16.8706 71.9679 16.4572 70.8142 16.4572C69.6605 16.4572 68.6895 16.8706 67.9012 17.6974C67.1321 18.505 66.7475 19.6683 66.7475 21.1873C66.7475 22.7063 67.1224 23.8792 67.8723 24.706C68.6414 25.5136 69.6028 25.9173 70.7565 25.9173Z" fill="white"/>
<path d="M84.9379 25.975H89.274V29.1765H80.9001V6.56445H84.9379V25.975Z" fill="white"/>
<path d="M92.4064 11.2945C91.695 11.2945 91.0989 11.0734 90.6182 10.6312C90.1567 10.1697 89.926 9.60246 89.926 8.92949C89.926 8.25651 90.1567 7.6989 90.6182 7.25666C91.0989 6.79519 91.695 6.56445 92.4064 6.56445C93.1178 6.56445 93.7043 6.79519 94.1657 7.25666C94.6464 7.6989 94.8868 8.25651 94.8868 8.92949C94.8868 9.60246 94.6464 10.1697 94.1657 10.6312C93.7043 11.0734 93.1178 11.2945 92.4064 11.2945ZM94.3965 13.1981V29.1765H90.3586V13.1981H94.3965Z" fill="white"/>
<path d="M106.087 12.9673C107.99 12.9673 109.528 13.573 110.701 14.7844C111.874 15.9765 112.461 17.6493 112.461 19.8029V29.1765H108.423V20.3509C108.423 19.0818 108.106 18.1108 107.471 17.4378C106.837 16.7456 105.971 16.3995 104.875 16.3995C103.76 16.3995 102.876 16.7456 102.222 17.4378C101.587 18.1108 101.27 19.0818 101.27 20.3509V29.1765H97.2322V13.1981H101.27V15.1882C101.808 14.496 102.491 13.9576 103.318 13.573C104.164 13.1692 105.087 12.9673 106.087 12.9673Z" fill="white"/>
<path d="M130 20.8412C130 21.418 129.962 21.9372 129.885 22.3986H118.204C118.3 23.5523 118.704 24.456 119.415 25.1098C120.127 25.7635 121.002 26.0904 122.04 26.0904C123.54 26.0904 124.607 25.4463 125.242 24.158H129.597C129.135 25.6962 128.251 26.9653 126.943 27.9651C125.636 28.9457 124.03 29.4361 122.127 29.4361C120.588 29.4361 119.204 29.0996 117.973 28.4266C116.762 27.7344 115.81 26.7634 115.118 25.5136C114.445 24.2637 114.109 22.8217 114.109 21.1873C114.109 19.5337 114.445 18.082 115.118 16.8322C115.791 15.5823 116.733 14.6209 117.945 13.948C119.156 13.275 120.55 12.9385 122.127 12.9385C123.646 12.9385 125.001 13.2654 126.193 13.9191C127.405 14.5729 128.337 15.5054 128.991 16.7168C129.664 17.9089 130 19.2837 130 20.8412ZM125.818 19.6875C125.799 18.6492 125.424 17.8224 124.694 17.2071C123.963 16.5726 123.069 16.2553 122.011 16.2553C121.011 16.2553 120.165 16.563 119.473 17.1783C118.8 17.7743 118.387 18.6107 118.233 19.6875H125.818Z" fill="white"/>
</svg>
