<svg width="30" height="30" viewBox="0 0 30 30" fill="none" xmlns="http://www.w3.org/2000/svg">
<path d="M26.8905 10.0548L26.8905 13.8316C26.8905 14.4769 26.3674 15.0001 25.7221 15.0001H17.7379H9.92727C9.28194 15.0001 8.75881 14.4769 8.75881 13.8316V9.73829V5.09424C8.75881 4.44892 9.28194 3.92578 9.92727 3.92578H25.7221C26.3674 3.92578 26.8905 4.44892 26.8905 5.09424V10.0548Z" fill="#BABFE9"/>
<g filter="url(#filter0_b_964_1491)">
<path d="M1 25.3704V7.7948C1 7.14948 1.52314 6.62634 2.16846 6.62634H23.7715C24.4169 6.62634 24.94 7.14948 24.94 7.7948V15.2068V25.3704C24.94 26.0157 24.4169 26.5388 23.7715 26.5388H2.16846C1.52314 26.5388 1 26.0157 1 25.3704Z" fill="url(#paint0_radial_964_1491)" fill-opacity="0.4"/>
<path d="M1.29212 25.3704V7.7948C1.29212 7.31081 1.68447 6.91846 2.16846 6.91846H23.7715C24.2555 6.91846 24.6479 7.31081 24.6479 7.7948V15.2068V25.3704C24.6479 25.8544 24.2555 26.2467 23.7715 26.2467H2.16846C1.68447 26.2467 1.29212 25.8544 1.29212 25.3704Z" stroke="url(#paint1_linear_964_1491)" stroke-width="0.584231" stroke-miterlimit="10" stroke-linecap="round" stroke-linejoin="round"/>
</g>
<path d="M6.11816 14.0385H15.9357" stroke="white" stroke-width="1.75269" stroke-miterlimit="10" stroke-linecap="round" stroke-linejoin="round"/>
<path d="M6.11816 19.1268H19.8232" stroke="white" stroke-width="1.75269" stroke-miterlimit="10" stroke-linecap="round" stroke-linejoin="round"/>
<defs>
<filter id="filter0_b_964_1491" x="-6.01077" y="-0.384427" width="37.962" height="33.934" filterUnits="userSpaceOnUse" color-interpolation-filters="sRGB">
<feFlood flood-opacity="0" result="BackgroundImageFix"/>
<feGaussianBlur in="BackgroundImageFix" stdDeviation="3.50538"/>
<feComposite in2="SourceAlpha" operator="in" result="effect1_backgroundBlur_964_1491"/>
<feBlend mode="normal" in="SourceGraphic" in2="effect1_backgroundBlur_964_1491" result="shape"/>
</filter>
<radialGradient id="paint0_radial_964_1491" cx="0" cy="0" r="1" gradientUnits="userSpaceOnUse" gradientTransform="translate(6.98205 15.2598) rotate(-15.0345) scale(27.7368 46.03)">
<stop stop-color="#3347FF"/>
<stop offset="0.749777" stop-color="#DFE2FF" stop-opacity="0.54725"/>
<stop offset="1" stop-color="#6B7AFF"/>
</radialGradient>
<linearGradient id="paint1_linear_964_1491" x1="2.95719" y1="13.8712" x2="9.68386" y2="28.0931" gradientUnits="userSpaceOnUse">
<stop stop-color="white" stop-opacity="0.64"/>
<stop offset="1" stop-color="white" stop-opacity="0.24"/>
</linearGradient>
</defs>
</svg>
