<svg width="30" height="30" viewBox="0 0 30 30" fill="none" xmlns="http://www.w3.org/2000/svg">
<path d="M22.1182 5.24121V10.6324C22.1182 11.2777 21.5951 11.8009 20.9498 11.8009H9.0503C8.40497 11.8009 7.88184 11.2777 7.88184 10.6324V5.24122C7.88184 4.59589 8.40497 4.07275 9.0503 4.07275H20.9498C21.5951 4.07275 22.1182 4.59589 22.1182 5.24121Z" fill="#BABFE9"/>
<g filter="url(#filter0_b_964_1505)">
<path d="M28.0411 7.11707C28.6864 7.11707 29.2095 7.6402 29.2095 8.28553V24.9741C29.2095 25.6194 28.6864 26.1426 28.0411 26.1426H2.14697C1.50165 26.1426 0.978516 25.6194 0.978516 24.9741V8.28553C0.978516 7.6402 1.50165 7.11707 2.14698 7.11707H9.61802H20.5705H28.0411Z" fill="url(#paint0_radial_964_1505)" fill-opacity="0.4"/>
<path d="M28.9174 8.28553V24.9741C28.9174 25.4581 28.525 25.8504 28.0411 25.8504H2.14697C1.66298 25.8504 1.27063 25.4581 1.27063 24.9741V8.28553C1.27063 7.80153 1.66298 7.40918 2.14698 7.40918H9.61802H20.5705H28.0411C28.525 7.40918 28.9174 7.80153 28.9174 8.28553Z" stroke="url(#paint1_linear_964_1505)" stroke-width="0.584231" stroke-miterlimit="10" stroke-linecap="round" stroke-linejoin="round"/>
</g>
<path d="M10.9092 12.8711H19.2782" stroke="white" stroke-width="1.75269" stroke-miterlimit="10" stroke-linecap="round" stroke-linejoin="round"/>
<defs>
<filter id="filter0_b_964_1505" x="-6.03225" y="0.106296" width="42.253" height="33.0471" filterUnits="userSpaceOnUse" color-interpolation-filters="sRGB">
<feFlood flood-opacity="0" result="BackgroundImageFix"/>
<feGaussianBlur in="BackgroundImageFix" stdDeviation="3.50538"/>
<feComposite in2="SourceAlpha" operator="in" result="effect1_backgroundBlur_964_1505"/>
<feBlend mode="normal" in="SourceGraphic" in2="effect1_backgroundBlur_964_1505" result="shape"/>
</filter>
<radialGradient id="paint0_radial_964_1505" cx="0" cy="0" r="1" gradientUnits="userSpaceOnUse" gradientTransform="translate(8.03279 15.366) rotate(-12.2775) scale(32.3281 44.4969)">
<stop stop-color="#3347FF"/>
<stop offset="0.749777" stop-color="#DFE2FF" stop-opacity="0.54725"/>
<stop offset="1" stop-color="#6B7AFF"/>
</radialGradient>
<linearGradient id="paint1_linear_964_1505" x1="3.28651" y1="14.0392" x2="8.84283" y2="28.5382" gradientUnits="userSpaceOnUse">
<stop stop-color="white" stop-opacity="0.64"/>
<stop offset="1" stop-color="white" stop-opacity="0.24"/>
</linearGradient>
</defs>
</svg>
