<svg width="24" height="25" viewBox="0 0 24 25" fill="none" xmlns="http://www.w3.org/2000/svg">
<path d="M6 11.7121V6.91211C6 5.792 6 5.23153 6.21799 4.80371C6.40973 4.42739 6.71547 4.12165 7.0918 3.9299C7.51962 3.71191 8.08009 3.71191 9.2002 3.71191H13.6747C13.7973 3.71191 13.9045 3.71191 14 3.71278M19.9991 9.71191C20 9.80752 20 9.91488 20 10.0376V18.5155C20 19.6334 20 20.1924 19.7822 20.6198C19.5905 20.9961 19.2839 21.3024 18.9076 21.4941C18.4802 21.7119 17.921 21.7119 16.8031 21.7119L13 21.7119M19.9991 9.71191C19.9963 9.42642 19.9857 9.24567 19.9443 9.07324C19.8953 8.86917 19.8142 8.67405 19.7046 8.49511C19.5809 8.29328 19.4089 8.1208 19.063 7.7749L15.9375 4.64941C15.5918 4.30373 15.4186 4.13048 15.2168 4.00684C15.0379 3.89718 14.8429 3.81617 14.6388 3.76717C14.4663 3.72576 14.2856 3.71538 14 3.71278M19.9991 9.71191H20.0002M19.9991 9.71191H17.1969C16.079 9.71191 15.5192 9.71191 15.0918 9.49414C14.7155 9.30239 14.4097 8.99583 14.218 8.6195C14 8.19168 14 7.63202 14 6.51191V3.71278M9 14.7119L11 16.7119M4 21.7119V19.2119L11.5 11.7119L14 14.2119L6.5 21.7119H4Z" stroke="white" stroke-width="1.16667" stroke-linecap="round" stroke-linejoin="round"/>
</svg>
