<svg width="160" height="163" viewBox="0 0 160 163" fill="none" xmlns="http://www.w3.org/2000/svg">
<rect width="160" height="162.786" fill="white"/>
<path d="M57.6704 68.9901C59.8407 75.9487 67.2411 79.8305 74.1998 77.6602C81.1584 75.4899 97.6399 64.1599 95.4696 57.2013C93.2994 50.2427 73.2992 50.2905 66.3406 52.4607C59.3819 54.631 55.5002 62.0314 57.6704 68.9901Z" fill="url(#paint0_radial_375_37063)"/>
<path d="M53.4656 107.147C57.55 111.231 64.1713 111.231 68.2557 107.147C72.3401 103.062 79.7347 89.0458 75.6511 84.9614C71.5667 80.8774 57.55 88.2724 53.4656 92.3564C49.3813 96.4408 49.3813 103.062 53.4656 107.147Z" fill="url(#paint1_radial_375_37063)"/>
<path d="M92.5481 111.163C99.5891 113.049 106.826 108.871 108.713 101.83C110.599 94.7889 109.837 74.8035 102.796 72.9167C95.7553 71.0303 85.1026 87.957 83.2158 94.998C81.329 102.039 85.5072 109.276 92.5481 111.163Z" fill="url(#paint2_linear_375_37063)"/>
<defs>
<radialGradient id="paint0_radial_375_37063" cx="0" cy="0" r="1" gradientUnits="userSpaceOnUse" gradientTransform="translate(95.6507 56.8729) rotate(162.759) scale(55.6609 79.2963)">
<stop stop-color="#3E96F7"/>
<stop offset="0.48585" stop-color="#9301FF"/>
<stop offset="0.71428" stop-color="#CC01FE"/>
</radialGradient>
<radialGradient id="paint1_radial_375_37063" cx="0" cy="0" r="1" gradientUnits="userSpaceOnUse" gradientTransform="translate(79.066 83.4323) rotate(146.921) scale(47.6915 110.551)">
<stop offset="0.0977501" stop-color="#D730A2"/>
<stop offset="0.467786" stop-color="#FD291C"/>
<stop offset="0.700031" stop-color="#FCA13D"/>
</radialGradient>
<linearGradient id="paint2_linear_375_37063" x1="99.5971" y1="74.2668" x2="99.5971" y2="112.029" gradientUnits="userSpaceOnUse">
<stop stop-color="#9F58EE"/>
<stop offset="1" stop-color="#56F77C"/>
</linearGradient>
</defs>
</svg>
