<svg width="160" height="163" viewBox="0 0 160 163" fill="none" xmlns="http://www.w3.org/2000/svg">
<rect width="160" height="162.786" fill="#F3F8FF"/>
<path fill-rule="evenodd" clip-rule="evenodd" d="M77.9459 91.6756L77.9214 110.988L82.0038 110.993L82.0284 91.5915L89.4753 109.507L93.245 107.94L85.849 90.1471L99.4567 103.789L102.347 100.906L88.6812 87.2058L106.554 94.6231L108.119 90.8526L90.2434 83.4341H109.597V79.3517H90.2899L108.135 71.9816L106.577 68.2083L88.8081 75.5468L102.472 62.023L99.5998 59.1215L85.7664 72.8135L93.2209 54.8339L89.4498 53.2704L82.0544 71.1074L82.0788 51.7981L77.9964 51.793L77.9718 71.1969L70.5238 53.2792L66.7541 54.8461L74.1494 72.637L60.5432 58.9962L57.6528 61.8792L71.319 75.5802L53.4452 68.1623L51.8804 71.9329L69.7564 79.3517H50.4023V83.4341H69.7106L51.8645 90.8046L53.4229 94.5778L71.1915 87.2394L57.5282 100.763L60.4 103.664L74.2321 89.9738L66.7783 107.952L70.5494 109.515L77.9459 91.6756Z" fill="#8FD5F5"/>
</svg>
