<svg width="160" height="163" viewBox="0 0 160 163" fill="none" xmlns="http://www.w3.org/2000/svg">
<rect width="160" height="162.786" fill="#FFE989"/>
<path d="M63.7466 45.9292H51.5845C50.9316 45.9292 50.4023 46.4585 50.4023 47.1113V70.029L63.7466 45.9292Z" fill="#35293B"/>
<path d="M50.4023 77.4004C50.4408 77.4021 50.4796 77.403 50.5187 77.403H69.0611C70.5125 77.403 71.6529 78.6429 71.5291 80.0865L69.9247 98.7991C69.6967 101.458 73.2672 102.542 74.5606 100.206L93.8281 65.409C94.7406 63.761 93.5465 61.7402 91.6602 61.7402H73.1177C71.6663 61.7402 70.5259 60.5002 70.6497 59.0567L71.7753 45.9292H90.4869C107.73 45.9292 115.459 67.6169 102.123 78.5807L91.6985 87.1516C91.0157 87.7129 90.8812 88.708 91.3904 89.4315L109.38 114.994C109.931 115.777 109.371 116.856 108.413 116.856H51.5845C50.9316 116.856 50.4023 116.327 50.4023 115.674V77.4004Z" fill="#35293B"/>
</svg>
