<svg width="160" height="163" viewBox="0 0 160 163" fill="none" xmlns="http://www.w3.org/2000/svg">
<rect width="160" height="162.786" fill="#0090F1"/>
<path d="M101.098 108.614C98.1495 108.614 96.333 107.253 93.3654 105.65C90.3978 104.047 81.815 97.5932 81.815 89.5594C81.815 84.1094 80.4101 79.7015 78.0176 76.1885C75.6428 72.7026 72.4258 70.2875 69.079 68.5826C67.4663 67.7612 65.788 67.0895 64.1168 66.5344C63.1425 66.2109 62.5772 65.1649 62.9999 64.2296C65.679 58.2985 71.6456 54.1719 78.5767 54.1719C88.0115 54.1719 95.6604 61.8203 95.6604 71.2555C95.6604 73.2741 95.3104 75.2111 94.6675 77.0086C97.3905 75.1735 100.671 74.1026 104.202 74.1026C113.637 74.1026 121.286 81.751 121.286 91.1863C121.286 102.545 111.305 108.614 101.098 108.614Z" fill="white"/>
<path d="M38.7148 89.7627C38.7148 98.7678 44.6517 106.271 52.5168 107.929C53.7308 108.372 55.0413 108.614 56.4086 108.614H82.9514C83.8415 108.614 84.2292 107.424 83.5496 106.849C78.9108 102.924 75.4634 97.3921 75.4634 89.5594C75.4634 85.2556 74.3735 82.121 72.7679 79.7644C71.1441 77.3807 68.8601 75.5992 66.1961 74.2417C63.5072 72.8722 60.5879 71.9999 57.8002 71.3814C57.1436 71.2985 56.4755 71.2555 55.7985 71.2555C46.3633 71.2555 38.7148 79.5415 38.7148 89.7627Z" fill="white"/>
</svg>
