<svg width="34" height="35" viewBox="0 0 34 35" fill="none" xmlns="http://www.w3.org/2000/svg">
<path d="M9.48837 1.38384C9.48837 0.98507 9.78531 0.648707 10.181 0.599246L14.9252 0.00622236C15.3971 -0.0527689 15.814 0.315211 15.814 0.790814V16.3948C15.814 16.8704 15.3971 17.2384 14.9252 17.1794L10.181 16.5864C9.78531 16.5369 9.48837 16.2005 9.48837 15.8018V1.38384Z" fill="white"/>
<path d="M0 3.36058C0 2.96181 0.296936 2.62545 0.692624 2.57599L5.43681 1.98297C5.90874 1.92398 6.32558 2.29196 6.32558 2.76756V15.2087C6.32558 15.6843 5.90874 16.0523 5.43681 15.9933L0.692623 15.4003C0.296935 15.3508 0 15.0145 0 14.6157V3.36058Z" fill="white"/>
<path d="M24.7034 1.32679C25.0554 1.41479 25.3023 1.73105 25.3023 2.09388V8.68548C25.3023 9.08425 25.0054 9.42061 24.6097 9.47008L19.8655 10.0631C19.3936 10.1221 18.9767 9.75411 18.9767 9.27851V0.907833C18.9767 0.393428 19.4602 0.0159818 19.9592 0.140743L24.7034 1.32679Z" fill="white"/>
<path d="M34 4.07062C34 3.7078 33.7531 3.39153 33.4011 3.30353L28.6569 2.11749C28.1578 1.99273 27.6744 2.37017 27.6744 2.88458V8.88316C27.6744 9.35876 28.0913 9.72674 28.5632 9.66775L33.3074 9.07473C33.7031 9.02527 34 8.6889 34 8.29014V4.07062Z" fill="white"/>
<path d="M34 12.1509L18.5814 12.5463C18.8045 15.4464 21.2228 17.6858 24.1315 17.6858H27.6744V21.0509L0 18.4765V34.9608L34 32.5887V12.1509Z" fill="white"/>
</svg>
