<svg width="34" height="23" viewBox="0 0 34 23" fill="none" xmlns="http://www.w3.org/2000/svg">
<path d="M25.6872 22.4176C24.4733 22.4176 23.7253 21.8571 22.5033 21.1971C21.2814 20.537 17.7473 17.8795 17.7473 14.5714C17.7473 12.3273 17.1688 10.5123 16.1836 9.06573C15.2058 7.63033 13.8811 6.63588 12.503 5.93387C11.8389 5.59564 11.1479 5.31907 10.4597 5.09048C10.0585 4.9573 9.82575 4.52657 9.9998 4.14145C11.103 1.6992 13.5598 0 16.4138 0C20.2988 0 23.4483 3.14937 23.4483 7.0345C23.4483 7.86567 23.3042 8.66328 23.0395 9.40342C24.1607 8.64777 25.5117 8.20683 26.9655 8.20683C30.8504 8.20683 34 11.3562 34 15.2413C34 19.9184 29.8901 22.4176 25.6872 22.4176Z" fill="white"/>
<path d="M0 14.6552C0 18.3632 2.44463 21.4527 5.68321 22.1354C6.18308 22.318 6.72272 22.4176 7.28571 22.4176H18.2152C18.5817 22.4176 18.7413 21.9274 18.4615 21.6906C16.5514 20.0744 15.1319 17.7967 15.1319 14.5714C15.1319 12.7993 14.6831 11.5085 14.0219 10.5382C13.3533 9.55666 12.4129 8.82309 11.3159 8.26411C10.2087 7.70021 9.00662 7.34099 7.85874 7.08631C7.58837 7.0522 7.31326 7.0345 7.0345 7.0345C3.14937 7.0345 0 10.4464 0 14.6552Z" fill="white"/>
</svg>
