<svg width="24" height="21" viewBox="0 0 24 21" fill="none" xmlns="http://www.w3.org/2000/svg">
<path fill-rule="evenodd" clip-rule="evenodd" d="M20.1003 0.480973C20.8667 0.798509 21.5629 1.26392 22.1494 1.85062C22.7361 2.43705 23.2015 3.13333 23.519 3.89967C23.8366 4.66602 24 5.48742 24 6.31694C24 7.14647 23.8366 7.96787 23.519 8.73422C23.2015 9.50056 22.7361 10.1968 22.1494 10.7833L13.3885 19.5441C12.6215 20.3111 11.3779 20.3111 10.6109 19.5441L1.85001 10.7833C0.665469 9.59872 0 7.99214 0 6.31694C0 4.64175 0.665469 3.03517 1.85001 1.85062C3.03455 0.666083 4.64114 0.000614014 6.31633 0.000614002C7.99152 0.000613989 9.59811 0.666083 10.7827 1.85062L11.9997 3.06767L13.2167 1.85062C13.8032 1.26392 14.4994 0.798509 15.2658 0.480973C16.0321 0.163437 16.8535 0 17.6831 0C18.5126 0 19.334 0.163437 20.1003 0.480973ZM8.7011 6.86791C7.80536 8.21129 7.14078 9.56284 7.14078 11.0286C7.14078 13.188 8.3772 15.2183 10.1499 16.0059L10.756 15.1434C11.4877 14.3072 12.6745 14.3068 13.4066 15.1434L13.9018 15.7089C15.6745 14.9212 16.7623 13.0747 16.7623 11.0283C16.7623 8.48666 14.6753 6.82859 14.6753 6.82859C14.4656 6.62997 14.2911 6.70942 14.2904 6.99528C14.2904 6.99528 14.4219 9.46834 13.1217 9.46834C12.4595 9.46834 12.4477 8.83748 12.4306 7.9204C12.4088 6.75577 12.3784 5.12953 10.9964 3.7475C10.4518 3.2807 10.2331 3.09322 10.1325 3.14325C9.89693 3.26044 10.3097 4.68104 8.7011 6.86791ZM14.4408 4.77595C13.9722 4.05313 13.0635 3.63721 12.6624 3.70668C12.4891 3.73662 12.5407 3.79371 12.6743 3.94166C12.85 4.13604 13.1673 4.48725 13.3025 5.13981C13.5411 6.28854 15.095 5.82019 14.4408 4.77595Z" fill="white"/>
</svg>
