<svg width="34" height="39" viewBox="0 0 34 39" fill="none" xmlns="http://www.w3.org/2000/svg">
<path d="M15.3569 0.440263C16.3737 -0.146755 17.6263 -0.146754 18.6431 0.440264L32.1058 8.21297L22.7967 13.6638C21.3557 12.2172 19.3616 11.3219 17.1584 11.3219C14.8671 11.3219 12.8019 12.2902 11.3499 13.8401L1.81644 8.25786L15.3569 0.440263Z" fill="white"/>
<path d="M9.53521 16.9883L0 11.4051V27.0122L9.49971 21.4498C9.30467 20.76 9.20031 20.0322 9.20031 19.2799C9.20031 18.4833 9.31736 17.714 9.53521 16.9883Z" fill="white"/>
<path d="M11.2645 24.6272L1.96624 30.0717L15.3569 37.8028C16.3737 38.3898 17.6263 38.3898 18.6431 37.8028L31.956 30.1166L22.8855 24.8054C21.4382 26.3052 19.4072 27.238 17.1584 27.238C14.8217 27.238 12.7203 26.231 11.2645 24.6272Z" fill="white"/>
<path d="M24.7467 21.6845L33.9994 27.1023C33.9998 27.0813 34 27.0603 34 27.0392V11.3147L24.7078 16.7556C24.9729 17.5488 25.1164 18.3976 25.1164 19.2799C25.1164 20.118 24.9869 20.9258 24.7467 21.6845Z" fill="white"/>
</svg>
