<svg width="34" height="34" viewBox="0 0 34 34" fill="none" xmlns="http://www.w3.org/2000/svg">
<path d="M0 2.43726C1.22003 2.99266 2.37177 4.15254 2.99076 5.96132C4.65732 10.8313 9.98313 14.1498 14.5983 11.628C16.4269 10.6288 19.5816 11.7089 20.7705 15.1834C22.4371 20.0533 27.7629 23.3719 32.3781 20.85C32.8494 20.5925 33.4089 20.4731 34 20.4972V23.9618C32.2246 23.3999 30.2909 23.4848 28.4679 24.4809C26.6394 25.4801 23.4847 24.3999 22.2957 20.9255C20.6292 16.0555 15.3034 12.737 10.6881 15.2589C8.85961 16.258 5.70492 15.1779 4.51594 11.7035C3.70668 9.33867 2.03459 7.33969 0 6.19762V2.43726Z" fill="white"/>
<path d="M3.24866 0C4.7474 1.17245 5.94961 2.83226 6.59797 4.72689C7.78695 8.2013 10.9416 9.28145 12.7702 8.28228C17.3854 5.76041 22.7112 9.07894 24.3778 13.9489C25.5667 17.4233 28.7214 18.5035 30.55 17.5043C31.6788 16.8875 32.8501 16.6201 34 16.6393V0H3.24866Z" fill="white"/>
<path d="M0 11.1576V14.8304C1.03888 15.8957 1.86679 17.2156 2.36615 18.6748C3.55513 22.1493 6.70982 23.2294 8.53836 22.2302C13.1536 19.7084 18.4794 23.0269 20.1459 27.8969C21.3349 31.3713 24.4896 32.4514 26.3181 31.4523C28.913 30.0344 31.7325 30.4627 34 31.975V28.1362C32.7318 27.3578 31.3101 27.2725 30.2961 27.8266C25.6809 30.3485 20.3551 27.0299 18.6885 22.1599C17.4995 18.6855 14.3449 17.6054 12.5163 18.6045C7.90111 21.1264 2.57529 17.8079 0.908732 12.9379C0.673995 12.252 0.362641 11.6593 0 11.1576Z" fill="white"/>
<path d="M20.0739 34C18.4889 32.8215 17.2137 31.1037 16.5387 29.1313C15.3497 25.6569 12.1951 24.5768 10.3665 25.5759C6.58796 27.6406 2.33307 25.7905 0 22.3793V34H20.0739Z" fill="white"/>
</svg>
