<svg width="34" height="34" viewBox="0 0 34 34" fill="none" xmlns="http://www.w3.org/2000/svg">
<path fill-rule="evenodd" clip-rule="evenodd" d="M17 34C26.3888 34 34 26.3888 34 17C34 7.61116 26.3888 0 17 0C7.61116 0 0 7.61116 0 17C0 26.3888 7.61116 34 17 34ZM18.1512 8.06677C19.5548 7.43583 21.1675 7.46812 22.5448 8.15473C24.5825 9.17058 24.54 12.0925 22.4736 13.0487L17.8893 15.17C17.4516 15.3726 16.9451 15.3633 16.5152 15.1448L12.2055 12.9548C11.7575 12.7271 11.2098 12.9057 10.9821 13.3538C10.7544 13.8018 10.9331 14.3495 11.3811 14.5772L16.3717 17.1132C16.8688 17.3658 17.4543 17.3766 17.9604 17.1424L23.2379 14.7002C26.6892 13.1032 26.7602 8.22282 23.3567 6.52607C21.4911 5.59597 19.3065 5.55223 17.4051 6.40692L8.02806 10.6219C7.37464 10.9157 6.95433 11.5654 6.95433 12.2818V15.2757C6.95433 15.9657 7.34464 16.5964 7.96222 16.9043L16.3656 21.0937C16.8769 21.3486 17.4782 21.3486 17.9895 21.0937L24.7506 17.723C25.1323 17.5327 25.5809 17.8103 25.5809 18.2368C25.5809 18.4545 25.4577 18.6535 25.2629 18.7506L17.8798 22.4314C17.4376 22.6518 16.9175 22.6518 16.4752 22.4314L9.58612 18.9969C8.37623 18.3937 6.95433 19.2736 6.95433 20.6255V22.2402C6.95433 22.9303 7.34464 23.561 7.96222 23.8688L16.3687 28.0598C16.8765 28.3129 17.4733 28.3148 17.9826 28.0647L24.418 24.9052C24.8691 24.6837 25.0552 24.1385 24.8337 23.6874C24.6123 23.2363 24.067 23.0501 23.6159 23.2716L17.8797 26.0879C17.4391 26.3042 16.9229 26.3026 16.4837 26.0837L9.17432 22.4397C8.92913 22.3174 8.77417 22.067 8.77417 21.7931C8.77417 21.2563 9.33869 20.907 9.81904 21.1465L16.3656 24.4102C16.8769 24.6651 17.4782 24.665 17.9895 24.4102L26.3928 20.2208C27.0104 19.9129 27.4007 19.2822 27.4007 18.5921V17.3091C27.4007 15.9572 25.9788 15.0773 24.7689 15.6804L17.8798 19.1149C17.4376 19.3354 16.9175 19.3354 16.4752 19.1149L9.64594 15.7103C9.11177 15.444 8.77417 14.8984 8.77417 14.3015V13.3C8.77417 12.6804 9.13771 12.1184 9.70289 11.8643L18.1512 8.06677Z" fill="white"/>
</svg>
