<svg width="24" height="20" viewBox="0 0 24 20" fill="none" xmlns="http://www.w3.org/2000/svg">
<path d="M24 2.30952C23.1174 2.70061 22.1693 2.96486 21.1726 3.08429C22.1894 2.47547 22.9694 1.50938 23.3373 0.359376C22.386 0.923809 21.3322 1.33392 20.2107 1.55377C19.3123 0.598256 18.0333 0 16.6169 0C13.8984 0 11.6935 2.20488 11.6935 4.92557C11.6935 5.31031 11.7379 5.68449 11.8203 6.04598C7.72659 5.83987 4.10006 3.87915 1.6711 0.900555C1.2483 1.62988 1.0052 2.47547 1.0052 3.37602C1.0052 5.08412 1.8751 6.59244 3.19528 7.47503C2.38774 7.4486 1.62882 7.22769 0.965031 6.8588V6.92222C0.965031 9.30785 2.6615 11.2982 4.915 11.7506C4.50066 11.8626 4.06624 11.9218 3.61807 11.9218C3.30098 11.9218 2.99128 11.8922 2.69109 11.8351C3.31789 13.7905 5.13591 15.2154 7.29111 15.2534C5.60521 16.5747 3.48172 17.3621 1.17537 17.3621C0.777944 17.3621 0.385801 17.3389 0 17.2934C2.17951 18.6918 4.76702 19.5057 7.5469 19.5057C16.6053 19.5057 21.5573 12.0032 21.5573 5.49634C21.5573 5.28495 21.552 5.07143 21.5425 4.86004C22.5044 4.16454 23.3394 3.29886 23.9979 2.31269L24 2.30952Z" fill="white"/>
</svg>
