<svg width="150" height="32" viewBox="0 0 150 32" fill="none" xmlns="http://www.w3.org/2000/svg">
<g clip-path="url(#clip0_851_12561)">
<path d="M3.32324 5.21738C5.2752 3.35377 7.92566 2.26597 10.612 2.13069C11.5314 2.13069 12.4535 2.13621 13.3729 2.12793C13.326 3.11357 13.3729 4.10198 13.3453 5.08762C13.2156 7.29082 12.4011 9.44432 11.0289 11.1726C9.24538 13.4973 6.5176 15.0572 3.62141 15.4603C2.35692 15.6646 1.0731 15.5349 -0.199675 15.5708C-0.177588 14.4857 -0.246611 13.3979 -0.161023 12.3157C0.0874587 9.63207 1.35471 7.06166 3.32324 5.21738Z" fill="white"/>
<path d="M14.2236 2.12793C15.2092 2.13897 16.1949 2.12241 17.1833 2.13345C19.6432 2.30739 22.0701 3.25162 23.9226 4.88883C25.9657 6.64201 27.3655 9.14891 27.7244 11.827C27.8818 13.0694 27.7824 14.3256 27.8431 15.5735C26.9817 15.5708 26.1231 15.568 25.2617 15.5735C23.144 15.5155 21.0623 14.8308 19.2898 13.6768C18.4726 13.0915 17.6333 12.4979 17.0204 11.6862C15.6758 10.1842 14.7619 8.29855 14.4168 6.3107C14.1573 4.93025 14.2622 3.52219 14.2236 2.12793Z" fill="white"/>
<path d="M-0.197741 16.3628C0.677465 16.4125 1.55543 16.3214 2.42788 16.418C6.16338 16.4981 9.78845 18.5964 11.7238 21.7907C12.8337 23.5798 13.4301 25.7002 13.3528 27.8067C13.35 28.497 13.3611 29.1844 13.3417 29.8719C11.9558 29.8305 10.556 29.9437 9.18381 29.6759C6.13577 29.1623 3.33345 27.3484 1.64654 24.7587C0.368244 22.8758 -0.269525 20.5759 -0.203263 18.3037C-0.203263 17.6549 -0.203263 17.0088 -0.197741 16.3628Z" fill="white"/>
<path d="M23.1786 16.6553C24.6806 16.3212 26.2294 16.3765 27.7562 16.3765L27.8225 16.4427C27.7893 17.8867 27.9025 19.3472 27.6126 20.7746C27.0025 23.9772 24.8821 26.8375 22.0301 28.4085C20.2548 29.3969 18.2173 29.8828 16.188 29.8607C15.5392 29.8635 14.8876 29.8497 14.2388 29.869C14.2388 28.6735 14.1891 27.4725 14.3244 26.2826C14.6392 23.403 16.1963 20.7221 18.4354 18.911C19.8214 17.8176 21.4503 17.0253 23.1786 16.6553Z" fill="white"/>
<path d="M40.5764 24.9803H52.0598L51.4198 28.5H35.1368L35.7057 25.3358L50.3177 7.31078H38.8698L39.5098 3.7911H55.7928L55.2239 6.95526L40.5764 24.9803ZM67.7959 8.59067C70.2371 8.59067 72.1807 9.27802 73.6265 10.6527C75.096 12.0274 75.8307 13.8761 75.8307 16.1989C75.8307 16.744 75.7714 17.3958 75.6529 18.1543C75.5581 18.6757 75.3922 19.3156 75.1552 20.0741H60.1877C60.164 20.24 60.1521 20.4889 60.1521 20.8207C60.1521 22.2191 60.5787 23.3331 61.432 24.1626C62.3089 24.9922 63.4466 25.4069 64.845 25.4069C67.0493 25.4069 68.7439 24.4944 69.929 22.6694H74.302C73.4013 24.4707 72.074 25.9521 70.3201 27.1135C68.5662 28.2511 66.5397 28.82 64.2406 28.82C62.6052 28.82 61.1713 28.5 59.9388 27.8601C58.7063 27.2201 57.7464 26.3076 57.059 25.1225C56.3717 23.9137 56.028 22.5035 56.028 20.8918C56.028 20.2044 56.0991 19.4697 56.2413 18.6875C56.5969 16.6729 57.3198 14.9071 58.41 13.3902C59.5003 11.8496 60.8513 10.6646 62.463 9.835C64.0984 9.00545 65.876 8.59067 67.7959 8.59067ZM71.6 17.1588C71.6474 16.7322 71.6711 16.424 71.6711 16.2344C71.6711 14.9308 71.2326 13.8998 70.3556 13.1414C69.5024 12.3829 68.3884 12.0037 67.0137 12.0037C65.5679 12.0037 64.2643 12.4659 63.103 13.3902C61.9416 14.3146 61.1476 15.5708 60.7209 17.1588H71.6ZM91.196 8.59067C93.258 8.59067 94.8934 9.14766 96.1022 10.2616C97.3347 11.3519 97.9509 12.9281 97.9509 14.9901C97.9509 15.5115 97.8917 16.1633 97.7732 16.9455L95.7111 28.5H91.6937L93.6491 17.5499C93.7439 16.8862 93.7913 16.4122 93.7913 16.1278C93.7913 14.8242 93.4239 13.8287 92.6892 13.1414C91.9781 12.454 90.9827 12.1104 89.7028 12.1104C88.1622 12.1104 86.8586 12.5844 85.792 13.5324C84.7492 14.4568 84.0855 15.796 83.8011 17.5499V17.4432L81.8457 28.5H77.7927L81.2413 8.91064H85.2943L84.9032 11.186C85.7091 10.3801 86.6571 9.75205 87.7474 9.30172C88.8614 8.82769 90.0109 8.59067 91.196 8.59067ZM106.569 23.0605C106.522 23.3923 106.498 23.6056 106.498 23.7004C106.498 24.1982 106.652 24.5655 106.96 24.8026C107.269 25.0159 107.778 25.1225 108.489 25.1225H110.978L110.373 28.5H107.174C105.609 28.5 104.412 28.1919 103.583 27.5756C102.753 26.9357 102.339 25.9284 102.339 24.5537C102.339 24.0323 102.386 23.5345 102.481 23.0605L104.401 12.217H102.09L102.659 8.91064H105.005L105.858 4.03996H109.947L109.094 8.91064H113.822L113.253 12.217H108.489L106.569 23.0605ZM121.006 12.3592C121.812 11.1741 122.76 10.2498 123.85 9.58614C124.964 8.92249 126.197 8.59067 127.548 8.59067L126.801 12.7858H125.77C124.206 12.7858 122.95 13.1769 122.002 13.9591C121.054 14.7412 120.39 16.0922 120.011 18.012L118.162 28.5H114.109L117.558 8.91064H121.611L121.006 12.3592ZM136.322 28.82C134.663 28.82 133.205 28.4763 131.949 27.789C130.693 27.1016 129.709 26.1298 128.998 24.8737C128.311 23.6175 127.967 22.1835 127.967 20.5718C127.967 18.3676 128.476 16.3529 129.496 14.5279C130.538 12.7029 131.961 11.2571 133.762 10.1905C135.587 9.12395 137.613 8.59067 139.841 8.59067C141.5 8.59067 142.97 8.94619 144.25 9.65724C145.53 10.3446 146.525 11.3164 147.236 12.5725C147.971 13.805 148.338 15.239 148.338 16.8744C148.338 19.0786 147.805 21.0933 146.739 22.9183C145.672 24.7433 144.226 26.1891 142.401 27.2557C140.576 28.2985 138.55 28.82 136.322 28.82ZM136.819 25.4069C138.17 25.4069 139.403 25.0277 140.517 24.2693C141.655 23.4871 142.543 22.4679 143.183 21.2118C143.823 19.9319 144.143 18.569 144.143 17.1232C144.143 15.4878 143.681 14.2316 142.757 13.3547C141.832 12.454 140.671 12.0037 139.273 12.0037C137.898 12.0037 136.665 12.3948 135.575 13.1769C134.509 13.9354 133.667 14.9664 133.051 16.27C132.458 17.5499 132.162 18.9246 132.162 20.3941C132.162 21.9821 132.589 23.2145 133.442 24.0915C134.319 24.9685 135.445 25.4069 136.819 25.4069Z" fill="white"/>
</g>
<defs>
<clipPath id="clip0_851_12561">
<rect width="150" height="32" fill="white"/>
</clipPath>
</defs>
</svg>
